<?xml version="1.0" encoding="utf-8"?>
<!-- Generator: Adobe Illustrator 26.0.0, SVG Export Plug-In . SVG Version: 6.00 Build 0)  -->
<svg version="1.1" id="Camada_1" xmlns="http://www.w3.org/2000/svg" xmlns:xlink="http://www.w3.org/1999/xlink" x="0px" y="0px"
	 viewBox="0 0 269.141 226.768" style="enable-background:new 0 0 269.141 226.768;" xml:space="preserve">
<style type="text/css">
	.st0{fill:#0050B3;}
</style>
<g id="Black-S" transform="matrix(1 0 0 1 2877.98 696)">
	<path class="st0" d="M-2828.86-622.169c0,16.1,9.251,28.999,20.993,28.999c11.831,0,21.171-12.987,21.171-28.999
		c0-15.923-9.34-28.91-21.171-28.91C-2819.608-651.079-2828.86-638.092-2828.86-622.169z M-2791.588-667.001
		c0,15.922,9.34,28.91,21.082,28.91c11.831,0,21.171-12.987,21.171-28.91c0-16.012-9.34-28.999-21.171-28.999
		C-2782.337-696-2791.588-683.013-2791.588-667.001z M-2742.042-667.001c0,15.922,9.34,28.91,21.171,28.91
		c11.742,0,21.082-12.987,21.082-28.91c0-16.012-9.251-28.999-21.082-28.999C-2732.701-696-2742.042-683.013-2742.042-667.001z
		 M-2704.681-622.169c0,16.011,9.34,28.999,21.171,28.999c11.742,0,20.992-12.898,20.992-28.999c0-15.923-9.25-28.91-20.992-28.91
		C-2695.341-651.079-2704.681-638.092-2704.681-622.169z M-2803.686-564.083c0,17.168,11.475,29.266,27.931,29.266
		c7.828,0,13.61-2.135,18.502-3.825c3.914-1.334,7.294-2.402,11.564-2.402s7.65,1.067,11.564,2.402
		c4.892,1.69,10.674,3.825,18.502,3.825c16.456,0,27.931-12.098,27.931-29.266c0-13.699-8.362-20.993-15.478-26.775
		c-4.003-3.202-7.561-6.049-10.052-9.696c-1.868-2.846-3.558-5.96-5.515-10.052c-5.337-11.208-9.785-23.039-26.953-23.039
		s-21.615,11.831-26.953,23.039c-1.957,4.092-3.647,7.205-5.515,10.052c-2.491,3.647-6.049,6.493-10.052,9.696
		C-2795.324-585.076-2803.686-577.782-2803.686-564.083z"/>
</g>
<g>
	<path d="M22.801,184.014c2.241,1.015,3.967,2.454,5.179,4.32c1.21,1.865,1.816,4.074,1.816,6.626c0,2.521-0.606,4.721-1.816,6.602
		c-1.211,1.883-2.938,3.322-5.179,4.32c-2.242,0.998-4.884,1.497-7.928,1.497H7.952v9.474H0v-34.36h14.873
		C17.917,182.492,20.559,182.999,22.801,184.014z M19.88,199.353c1.243-1.03,1.865-2.494,1.865-4.393
		c0-1.931-0.622-3.412-1.865-4.442c-1.244-1.031-3.06-1.546-5.449-1.546H7.952v11.928h6.479
		C16.82,200.899,18.636,200.384,19.88,199.353z"/>
	<path d="M60.573,205.808H40.595c0.36,1.637,1.21,2.93,2.553,3.879c1.341,0.949,3.01,1.423,5.007,1.423
		c1.374,0,2.593-0.204,3.656-0.614c1.063-0.408,2.054-1.055,2.97-1.938l4.074,4.417c-2.487,2.847-6.119,4.271-10.896,4.271
		c-2.979,0-5.613-0.58-7.903-1.742c-2.291-1.162-4.058-2.773-5.301-4.836c-1.244-2.061-1.865-4.4-1.865-7.019
		c0-2.585,0.614-4.917,1.841-6.995c1.227-2.078,2.912-3.697,5.056-4.859c2.143-1.161,4.541-1.743,7.191-1.743
		c2.584,0,4.924,0.557,7.019,1.669c2.094,1.113,3.738,2.708,4.934,4.786c1.194,2.078,1.791,4.491,1.791,7.241
		C60.72,203.845,60.671,204.532,60.573,205.808z M42.656,197.316c-1.178,0.982-1.898,2.324-2.16,4.025h13.008
		c-0.263-1.668-0.982-3.001-2.16-4c-1.178-0.998-2.618-1.497-4.32-1.497C45.29,195.844,43.834,196.334,42.656,197.316z"/>
	<path d="M82.858,215.576c-0.753,0.558-1.678,0.974-2.773,1.252c-1.097,0.277-2.25,0.417-3.461,0.417
		c-3.142,0-5.571-0.801-7.289-2.405c-1.718-1.603-2.577-3.959-2.577-7.068v-10.848h-4.074v-5.89h4.074v-6.431h7.657v6.431h6.578
		v5.89h-6.578v10.75c0,1.113,0.286,1.973,0.859,2.578c0.572,0.605,1.382,0.908,2.43,0.908c1.21,0,2.241-0.328,3.093-0.982
		L82.858,215.576z"/>
	<path d="M91.129,216.337c-2.536-0.736-4.573-1.693-6.111-2.871l2.7-5.988c1.473,1.08,3.223,1.947,5.252,2.602
		s4.058,0.981,6.087,0.981c2.258,0,3.927-0.335,5.007-1.007c1.08-0.67,1.62-1.562,1.62-2.675c0-0.817-0.319-1.497-0.957-2.037
		c-0.639-0.54-1.457-0.974-2.455-1.301s-2.348-0.688-4.049-1.08c-2.619-0.621-4.762-1.243-6.431-1.865
		c-1.669-0.621-3.101-1.62-4.295-2.994c-1.195-1.375-1.792-3.207-1.792-5.498c0-1.996,0.54-3.804,1.62-5.424
		c1.08-1.62,2.707-2.904,4.884-3.853c2.176-0.949,4.835-1.424,7.977-1.424c2.192,0,4.336,0.262,6.431,0.786
		c2.094,0.524,3.927,1.276,5.497,2.258l-2.454,6.038c-3.174-1.799-6.349-2.7-9.522-2.7c-2.226,0-3.87,0.36-4.934,1.08
		c-1.063,0.72-1.595,1.669-1.595,2.847c0,1.178,0.613,2.054,1.841,2.626c1.227,0.573,3.1,1.137,5.62,1.693
		c2.617,0.622,4.762,1.244,6.431,1.865c1.669,0.623,3.1,1.604,4.295,2.945c1.194,1.343,1.791,3.158,1.791,5.449
		c0,1.963-0.548,3.755-1.644,5.375c-1.098,1.619-2.741,2.904-4.934,3.854c-2.192,0.948-4.859,1.423-8.001,1.423
		C96.291,217.441,93.665,217.073,91.129,216.337z"/>
	<path d="M144.216,190.444l-11.928,28.028c-1.211,3.044-2.708,5.187-4.491,6.431c-1.784,1.243-3.936,1.865-6.455,1.865
		c-1.374,0-2.732-0.213-4.074-0.638c-1.342-0.426-2.438-1.015-3.289-1.768l2.798-5.448c0.59,0.522,1.269,0.933,2.037,1.228
		s1.529,0.441,2.283,0.441c1.047,0,1.897-0.254,2.552-0.761c0.654-0.508,1.244-1.351,1.768-2.528l0.099-0.245l-11.438-26.605h7.902
		l7.412,17.917l7.462-17.917H144.216z"/>
	<path d="M149.418,216.436c-2.095-0.54-3.764-1.219-5.007-2.037l2.553-5.498c1.178,0.753,2.602,1.366,4.271,1.841
		s3.305,0.712,4.909,0.712c3.239,0,4.859-0.802,4.859-2.405c0-0.752-0.442-1.293-1.325-1.62c-0.884-0.327-2.242-0.604-4.074-0.835
		c-2.16-0.326-3.944-0.703-5.351-1.129c-1.407-0.424-2.626-1.178-3.657-2.258c-1.03-1.08-1.546-2.617-1.546-4.614
		c0-1.669,0.482-3.149,1.448-4.442c0.965-1.292,2.372-2.298,4.221-3.019c1.849-0.72,4.033-1.08,6.554-1.08
		c1.865,0,3.722,0.205,5.571,0.614c1.848,0.41,3.378,0.974,4.589,1.693l-2.552,5.449c-2.324-1.309-4.86-1.963-7.608-1.963
		c-1.637,0-2.864,0.229-3.682,0.687c-0.818,0.458-1.228,1.048-1.228,1.767c0,0.818,0.442,1.391,1.325,1.719
		c0.884,0.326,2.29,0.637,4.222,0.932c2.16,0.361,3.927,0.745,5.302,1.154c1.374,0.409,2.568,1.152,3.583,2.232
		c1.014,1.08,1.521,2.586,1.521,4.517c0,1.637-0.491,3.093-1.473,4.368c-0.981,1.277-2.413,2.267-4.295,2.971
		c-1.882,0.703-4.115,1.055-6.7,1.055C153.656,217.245,151.512,216.976,149.418,216.436z"/>
	<path d="M190.062,215.576c-0.753,0.558-1.678,0.974-2.773,1.252c-1.097,0.277-2.25,0.417-3.461,0.417
		c-3.142,0-5.571-0.801-7.289-2.405c-1.718-1.603-2.577-3.959-2.577-7.068v-10.848h-4.074v-5.89h4.074v-6.431h7.657v6.431h6.578
		v5.89h-6.578v10.75c0,1.113,0.286,1.973,0.859,2.578c0.572,0.605,1.382,0.908,2.43,0.908c1.21,0,2.241-0.328,3.093-0.982
		L190.062,215.576z"/>
	<path d="M219.269,205.808H199.29c0.359,1.637,1.21,2.93,2.553,3.879c1.341,0.949,3.01,1.423,5.007,1.423
		c1.374,0,2.593-0.204,3.656-0.614c1.063-0.408,2.054-1.055,2.97-1.938l4.074,4.417c-2.487,2.847-6.119,4.271-10.896,4.271
		c-2.979,0-5.613-0.58-7.903-1.742c-2.291-1.162-4.058-2.773-5.301-4.836c-1.244-2.061-1.866-4.4-1.866-7.019
		c0-2.585,0.614-4.917,1.841-6.995c1.228-2.078,2.912-3.697,5.057-4.859c2.143-1.161,4.54-1.743,7.19-1.743
		c2.585,0,4.925,0.557,7.02,1.669c2.094,1.113,3.738,2.708,4.934,4.786c1.194,2.078,1.791,4.491,1.791,7.241
		C219.415,203.845,219.366,204.532,219.269,205.808z M201.352,197.316c-1.178,0.982-1.898,2.324-2.16,4.025H212.2
		c-0.263-1.668-0.982-3.001-2.16-4c-1.178-0.998-2.618-1.497-4.319-1.497C203.985,195.844,202.529,196.334,201.352,197.316z"/>
	<path d="M266.22,192.972c1.946,1.947,2.921,4.868,2.921,8.761v15.119h-7.658v-13.94c0-2.094-0.434-3.657-1.301-4.688
		s-2.103-1.546-3.706-1.546c-1.8,0-3.224,0.581-4.271,1.742c-1.048,1.163-1.57,2.889-1.57,5.178v13.254h-7.657v-13.94
		c0-4.155-1.669-6.234-5.007-6.234c-1.768,0-3.175,0.581-4.222,1.742c-1.048,1.163-1.571,2.889-1.571,5.178v13.254h-7.657v-26.409
		h7.313v3.043c0.982-1.112,2.185-1.963,3.608-2.552c1.424-0.589,2.985-0.884,4.688-0.884c1.865,0,3.551,0.368,5.056,1.104
		s2.716,1.809,3.633,3.215c1.08-1.375,2.446-2.438,4.099-3.191c1.652-0.752,3.461-1.129,5.424-1.129
		C261.646,190.051,264.272,191.025,266.22,192.972z"/>
</g>
</svg>
